<?xml version="1.0" encoding="UTF-8"?>
<svg xmlns="http://www.w3.org/2000/svg" xmlns:xlink="http://www.w3.org/1999/xlink" version="1.1" viewBox="0 0 735 735">
  <defs>
    <style>
      .cls-1 {
        fill: none;
      }

      .cls-2 {
        fill: #fff;
      }

      .cls-3 {
        clip-path: url(#clippath);
      }
    </style>
    <clipPath id="clippath">
      <rect class="cls-1" x="0" y="221" width="735" height="293"/>
    </clipPath>
  </defs>
  <!-- Generator: Adobe Illustrator 28.6.0, SVG Export Plug-In . SVG Version: 1.2.0 Build 709)  -->
  <g>
    <g id="Layer_1">
      <g class="cls-3">
        <g>
          <path class="cls-2" d="M225,308.5h29.5v106.9h52.9v23.1h-82.4v-130Z"/>
          <path class="cls-2" d="M316.3,404.7v-61.3h26.2v57.6c0,12.9,5.3,19.1,16.6,19.1s19.8-6.9,19.8-20.9v-55.8h26.1v95.1h-26.1v-14.9c-4.9,9.6-14.5,16.9-30.2,16.9s-32.4-10.9-32.4-35.8Z"/>
          <path class="cls-2" d="M417.4,392.2v-1.4c0-30.7,22-49.5,49.1-49.5s42.4,9.6,44.7,36.9h-24.9c-1.8-11.1-8.5-16.2-19.3-16.2s-22.7,10.2-22.7,28.4v1.5c0,19.1,8.5,28.9,23.3,28.9s19.1-6.2,20.4-18.4h23.8c-1.5,22.5-17.8,38.2-45.5,38.2s-48.9-17.3-48.9-48.4Z"/>
          <path class="cls-2" d="M521.7,316.2c0-8.2,6.5-14.4,14.9-14.4s15.1,6.2,15.1,14.4-6.6,14.4-15.1,14.4-14.9-6.2-14.9-14.4ZM523.7,343.5h26.2v95.1h-26.2v-95.1Z"/>
          <path class="cls-2" d="M562.5,392.4v-1.5c0-31.3,18-49.6,41.8-49.6s24.7,6.7,30,16.4v-57.3h26.2v138.2h-26.2v-15.8c-4.9,9.6-16.5,17.8-30.5,17.8-23.1,0-41.3-16.6-41.3-48.2ZM635,391.5v-1.5c0-18.9-8.4-28.5-22.7-28.5s-22.9,10-22.9,28.9v1.5c0,18.9,9.1,28.2,22.2,28.2s23.4-9.3,23.4-28.5h0Z"/>
          <path class="cls-2" d="M125,295.8l-50,28.9v115.6l50-28.9v-115.6Z"/>
          <path class="cls-2" d="M175,438.5v-56l-50,28.9v27.1h50Z"/>
        </g>
      </g>
    </g>
  </g>
</svg>