<svg version="1.2" baseProfile="tiny-ps" xmlns="http://www.w3.org/2000/svg" viewBox="0 0 890 1527" width="890" height="1527">
	<title>logo (20)-svg</title>
	<style>
		tspan { white-space:pre }
		.shp0 { fill: #b2e522 } 
	</style>
	<g id="Layer">
		<path id="svg_17" fill-rule="evenodd" class="shp0" d="M889.61 502.26L889.61 828.73C889.61 831.1 889.45 833.16 889.13 835.54C885.01 863.75 865.06 896.87 822.61 896.87L680.08 896.87C665.19 913.67 630.19 942.67 564.94 948.06L564.94 948.22C563.99 996.71 534.21 1037.91 492.08 1055.98L492.08 1149.01C492.08 1150.75 493.35 1152.18 495.09 1152.18C694.01 1160.1 821.51 1223.33 858.09 1244.09C880.74 1257.09 885.01 1282.92 885.01 1300.51L885.01 1373.57C884.06 1399.24 862.52 1419.68 836.55 1419.05C812.32 1418.41 791.89 1398.45 790.62 1374.36C789.2 1350.9 805.19 1330.94 826.73 1325.71C828.16 1325.39 829.11 1324.12 829.11 1322.7L829.11 1296.39C829.11 1289.42 825.31 1283.08 819.13 1279.91C765.12 1250.11 627.49 1235.06 523.44 1229.83C510.45 1229.04 497.94 1229.51 492.56 1229.67C490.97 1229.67 489.87 1230.94 489.71 1232.52C484.32 1316.83 473.08 1432.36 473.08 1432.36L477.04 1432.52C495.09 1432.52 510.77 1453.12 510.77 1479.59C510.77 1506.05 495.25 1526.97 477.04 1526.97L413.37 1526.97C395.32 1526.97 379.64 1506.05 379.64 1479.59C379.64 1453.12 395.16 1432.52 413.37 1432.52L417.33 1432.36C414.48 1387.83 406.08 1316.67 400.7 1232.36C400.7 1230.78 399.43 1229.51 397.85 1229.51C392.46 1229.19 379.95 1228.88 366.97 1229.67C262.91 1234.9 125.28 1249.95 71.28 1279.75C65.1 1282.92 61.3 1289.26 61.3 1296.23L61.3 1322.54C61.3 1323.96 62.25 1325.23 63.68 1325.55C85.37 1330.78 101.21 1350.75 99.79 1374.2C98.52 1398.29 78.09 1418.26 53.86 1418.89C27.88 1419.52 6.34 1399.08 5.39 1373.41L5.39 1300.35C5.39 1282.76 9.67 1256.93 32.32 1243.93C68.9 1223.17 196.4 1159.94 395.32 1152.02C396.9 1151.86 398.32 1150.59 398.32 1148.85L398.32 1055.82C356.2 1037.76 326.42 996.55 325.47 948.06L325.47 947.9C260.22 942.51 225.22 913.51 210.33 896.71L67.79 896.71C25.35 896.71 5.39 863.59 1.28 835.38C0.96 833 0.8 830.94 0.8 828.57L0.8 502.26C0.8 440.46 36.44 424.93 51.96 421.12C62.25 418.43 73.18 419.06 83.79 422.55L126.23 436.97L126.23 38.25C126.23 17.64 143.02 0.85 163.61 0.85L726.95 0.85C747.54 0.85 764.33 17.64 764.33 38.25L764.33 436.97L806.78 422.55C817.39 419.06 828.32 418.43 838.61 421.12C854.13 424.93 889.77 440.46 889.61 502.26ZM126.23 499.41C126.23 497.51 124.97 495.61 123.07 494.97L65.42 475.48C58.61 473.26 56.71 490.38 56.71 502.26L56.71 813.99C56.71 815.89 58.92 817 60.51 815.89L126.23 765.97L126.23 499.41ZM833.86 814.15L833.86 502.42C833.86 490.54 832.59 473.58 825.15 475.64L767.5 495.13C765.6 495.77 764.33 497.51 764.33 499.57L764.33 765.97L830.06 815.89C831.64 817 833.86 815.89 833.86 814.15Z" />
	</g>
</svg>